<svg xmlns="http://www.w3.org/2000/svg" viewBox="0 0 28 28" fill="currentColor"><path d="M25.5 14c0-6.351-5.149-11.5-11.5-11.5S2.5 7.649 2.5 14 7.649 25.5 14 25.5 25.5 20.351 25.5 14zm1.5 0c0 7.18-5.82 13-13 13S1 21.18 1 14 6.82 1 14 1s13 5.82 13 13zM7.479 14h.152c.302 0 .471.338.303.591a5.63 5.63 0 0 0-.951 3.133v.497c0 .121.007.24.021.357a.373.373 0 0 1-.367.422h-.514c-.895 0-1.623-.75-1.623-1.673C4.5 15.492 5.727 14 7.479 14zm13.042 0c1.753 0 2.979 1.492 2.979 3.327 0 .923-.728 1.673-1.622 1.673h-.514a.372.372 0 0 1-.367-.422 3.23 3.23 0 0 0 .02-.357v-.497a5.63 5.63 0 0 0-.95-3.133c-.168-.253 0-.591.302-.591h.152zM8.25 13c-1.103 0-2-1.009-2-2.25 0-1.366.785-2.25 2-2.25 1.215 0 2 .884 2 2.25 0 1.241-.897 2.25-2 2.25zm11.5 0c-1.103 0-2-1.009-2-2.25 0-1.366.785-2.25 2-2.25 1.215 0 2 .884 2 2.25 0 1.241-.897 2.25-2 2.25zm-4.578.5c2.386 0 4.328 1.895 4.328 4.224v.497c0 .981-.817 1.779-1.823 1.779h-7.354C9.317 20 8.5 19.202 8.5 18.221v-.497c0-2.329 1.941-4.224 4.328-4.224h2.344zM16.75 9c0 1.655-1.233 3-2.75 3-1.516 0-2.75-1.345-2.75-3 0-1.85 1.054-3 2.75-3 1.697 0 2.75 1.15 2.75 3z"/></svg>