<svg xmlns="http://www.w3.org/2000/svg" fill="currentColor" viewBox="0 0 24 24"><g fill-rule="evenodd"><path d="M16.785 13.5c.49 0 .841.476.712.957-.623 2.324-2.837 4.043-5.473 4.043-2.636 0-4.85-1.719-5.473-4.043-.13-.48.222-.957.712-.957h9.522z"/><path fill-rule="nonzero" d="M23.524 12c0 6.351-5.149 11.5-11.5 11.5S.524 18.351.524 12 5.673.5 12.024.5s11.5 5.149 11.5 11.5zm-2 0a9.5 9.5 0 1 0-19 0 9.5 9.5 0 0 0 19 0z"/><path d="M9.024 9c0 .829-.56 1.5-1.25 1.5s-1.25-.671-1.25-1.5.56-1.5 1.25-1.5 1.25.671 1.25 1.5m8.5 0c0 .829-.56 1.5-1.25 1.5s-1.25-.671-1.25-1.5.56-1.5 1.25-1.5 1.25.671 1.25 1.5m-.739 4.5H7.263c-.49 0-.841.476-.712.957.623 2.324 2.837 4.043 5.473 4.043 2.636 0 4.85-1.719 5.473-4.043.13-.48-.222-.957-.712-.957m-2.165 2c-.667.624-1.592 1-2.596 1a3.799 3.799 0 0 1-2.596-1h5.192"/></g></svg>