<svg xmlns="http://www.w3.org/2000/svg" fill="currentColor" viewBox="0 0 16 16"><path d="M11.75 7C10.51 7 9.5 5.879 9.5 4.5c0-1.542.863-2.5 2.25-2.5S14 2.958 14 4.5C14 5.879 12.99 7 11.75 7m.692 1h-1.384c-.105 0-.21.005-.312.014a.3.3 0 0 0-.186.509 5.03 5.03 0 0 1 1.44 3.53V13.2a.3.3 0 0 0 .3.3h2.015c.929 0 1.685-.756 1.685-1.685v-.257A3.562 3.562 0 0 0 12.442 8M9.41 14.5H1.59C.713 14.5 0 13.786 0 12.91v-.857A4.057 4.057 0 0 1 4.053 8h2.894A4.057 4.057 0 0 1 11 12.053v.856c0 .877-.713 1.591-1.59 1.591M5.5 7C4.121 7 3 5.654 3 4c0-1.879.935-3 2.5-3S8 2.121 8 4c0 1.654-1.121 3-2.5 3" fill-rule="evenodd"/></svg>