<svg xmlns="http://www.w3.org/2000/svg" fill="currentColor" viewBox="0 0 24 24"><g fill-rule="evenodd"><path d="m4.968 22.925-.648.057a2.692 2.692 0 0 1-1.978-.625 2.69 2.69 0 0 1-.96-1.84L.01 4.82A2.702 2.702 0 0 1 .8 2.664c.47-.472 1.111-.731 1.774-.79l2.58-.225a.498.498 0 0 1 .507.675 4.189 4.189 0 0 0-.251 1.11L4.017 19.35a4.206 4.206 0 0 0 .977 3.091s.459.364-.026.485m8.524-16.327a1.75 1.75 0 1 1-3.485.305 1.75 1.75 0 0 1 3.485-.305m5.85 3.011a.797.797 0 0 0-1.129-.093l-3.733 3.195a.545.545 0 0 0-.062.765l.837.993a.75.75 0 1 1-1.147.966l-2.502-2.981a.797.797 0 0 0-1.096-.12L7 15l-.5 4.25c-.06.674.326 2.19 1 2.25l11.916 1.166c.325.026 1-.039 1.25-.25.252-.21.89-.842.917-1.166l.833-8.084-3.073-3.557z"/><path fill-rule="nonzero" d="M19.61 23.463 8.006 22.448a2.77 2.77 0 0 1-2.512-2.995L6.88 3.59a2.77 2.77 0 0 1 2.996-2.51l11.603 1.015a2.77 2.77 0 0 1 2.513 2.994l-1.388 15.862a2.77 2.77 0 0 1-2.994 2.513zm.13-1.494.082.004a1.27 1.27 0 0 0 1.287-1.154l1.388-15.862a1.27 1.27 0 0 0-1.148-1.37L9.745 2.573a1.27 1.27 0 0 0-1.37 1.15l-1.387 15.86a1.27 1.27 0 0 0 1.149 1.37l11.603 1.016z"/></g></svg>