<svg xmlns="http://www.w3.org/2000/svg" fill="currentColor" viewBox="0 0 16 16"><path d="M9.25 8.5H7v2.25a.75.75 0 0 1-1.5 0V8.5H3.25a.75.75 0 0 1 0-1.5H5.5V4.75a.75.75 0 0 1 1.5 0V7h2.25a.75.75 0 0 1 0 1.5m6.38-4.435a.62.62 0 0 0-.64.047L12.5 5.746V4.352A1.854 1.854 0 0 0 10.648 2.5l-8.796.002A1.854 1.854 0 0 0 .001 4.354v6.793c0 1.021.83 1.852 1.852 1.852L3 12.997h7.648a1.854 1.854 0 0 0 1.852-1.851V9.754l2.457 1.61a.641.641 0 0 0 .673.071.663.663 0 0 0 .37-.601V4.667c0-.26-.142-.49-.37-.602" fill-rule="evenodd"/></svg>