<svg xmlns="http://www.w3.org/2000/svg" viewBox="0 0 28 28" fill="currentColor"><path d="M8.75 25.25a.75.75 0 0 1 0-1.5h10.5a.75.75 0 0 1 0 1.5H8.75zm8.413-12.404-5.108 3.077A.696.696 0 0 1 11 15.327V9.172a.696.696 0 0 1 1.055-.596l5.108 3.078a.696.696 0 0 1 0 1.192zm4.587 7.404A2.25 2.25 0 0 0 24 18V6.5a2.25 2.25 0 0 0-2.25-2.25H6.25A2.25 2.25 0 0 0 4 6.5V18a2.25 2.25 0 0 0 2.25 2.25h15.5zm0 1.5H6.25A3.75 3.75 0 0 1 2.5 18V6.5a3.75 3.75 0 0 1 3.75-3.75h15.5A3.75 3.75 0 0 1 25.5 6.5V18a3.75 3.75 0 0 1-3.75 3.75z"/></svg>